<svg width="20" height="17" viewBox="0 0 20 17" fill="none" xmlns="http://www.w3.org/2000/svg">
<path d="M0.807039 1.66625H2.20046L4.28922 11.0793C3.76888 11.3274 3.33136 11.7204 3.02928 12.2109C2.72719 12.7015 2.57339 13.2688 2.58636 13.8445C2.55115 14.5957 2.81484 15.3303 3.31989 15.8881C3.82493 16.4458 4.53034 16.7814 5.28218 16.8216H16.344C16.4559 16.8253 16.5673 16.8065 16.6717 16.7663C16.7762 16.7261 16.8714 16.6653 16.9519 16.5876C17.0323 16.5098 17.0963 16.4167 17.1399 16.3138C17.1836 16.2109 17.2061 16.1003 17.2061 15.9885C17.2061 15.8767 17.1836 15.7661 17.1399 15.6631C17.0963 15.5602 17.0323 15.4671 16.9519 15.3894C16.8714 15.3117 16.7762 15.2509 16.6717 15.2107C16.5673 15.1705 16.4559 15.1517 16.344 15.1554H5.28127C4.97417 15.1104 4.69604 14.9494 4.5042 14.7057C4.31235 14.462 4.2214 14.1541 4.25009 13.8454C4.22105 13.5373 4.31126 13.2297 4.50219 12.9859C4.69313 12.7422 4.97028 12.5807 5.27672 12.5346H16.344C16.5158 12.5347 16.6834 12.4818 16.8239 12.3832C16.9645 12.2846 17.0712 12.1451 17.1294 11.9837L19.9509 4.17427C19.9961 4.04843 20.0104 3.91357 19.9925 3.78106C19.9746 3.64855 19.9251 3.52228 19.8481 3.41291C19.771 3.30355 19.6688 3.21429 19.55 3.15267C19.4312 3.09105 19.2993 3.05889 19.1654 3.05889H4.21823L3.68489 0.653593C3.64402 0.46824 3.54098 0.302393 3.39284 0.183527C3.2447 0.0646614 3.06035 -8.99797e-05 2.87032 9.38468e-08H0.807039C0.59058 0.00714242 0.385377 0.0980469 0.234784 0.253508C0.08419 0.40897 0 0.616813 0 0.833126C0 1.04944 0.08419 1.25728 0.234784 1.41274C0.385377 1.56821 0.59058 1.65911 0.807039 1.66625ZM17.974 4.72696L15.7579 10.8702H5.95022L4.58502 4.72696H17.974Z" fill="#333333"/>
</svg>
